<svg width="185" height="123" viewBox="0 0 185 123" fill="none" xmlns="http://www.w3.org/2000/svg">
<path d="M172.473 55.8495C180.654 62.2689 184.825 73.0751 182.263 83.8568C179.701 94.6384 171.115 102.413 160.921 104.466L156.64 122.48L9.73063 87.5716L13.8194 70.3642C4.49193 64.1724 -0.464627 52.6164 2.27451 41.0888C5.01368 29.561 14.6388 21.4689 25.7547 20.1348L30.3056 0.982509L177.215 35.8905L172.473 55.8495Z" fill="#F01413"/>
<path d="M46.1273 56.3809C45.3386 56.1935 44.6756 55.9153 44.1383 55.5465C43.6074 55.1736 43.1854 54.7582 42.8721 54.3C42.5653 53.8379 42.3536 53.3792 42.2371 52.9239L44.0993 52.2152C44.1561 52.5302 44.2723 52.8484 44.4481 53.1697C44.6252 53.4859 44.8879 53.7758 45.2364 54.0395C45.5861 54.298 46.049 54.4957 46.6249 54.6326C47.1801 54.7645 47.6539 54.7894 48.0462 54.7072C48.4385 54.625 48.7497 54.4687 48.9799 54.2383C49.21 54.0079 49.3627 53.7345 49.4379 53.418C49.5316 53.0236 49.4948 52.6942 49.3274 52.4297C49.1612 52.1599 48.9116 51.9416 48.5785 51.7748C48.2466 51.6027 47.8821 51.464 47.4851 51.3587C47.1243 51.262 46.8641 51.192 46.7045 51.1486C46.5449 51.1052 46.4391 51.0773 46.3872 51.065C46.3353 51.0526 46.286 51.0409 46.2393 51.0298L46.661 49.2552C46.7181 49.2688 46.8141 49.2916 46.949 49.3237C47.0891 49.357 47.2318 49.3909 47.3771 49.4254C47.5288 49.456 47.652 49.4798 47.7466 49.4968C48.3443 49.6114 48.8621 49.5891 49.3001 49.4301C49.7432 49.2723 50.0228 48.9495 50.1387 48.4617C50.2509 47.9895 50.16 47.576 49.8661 47.2211C49.5774 46.8674 49.1398 46.6209 48.5535 46.4816C48.0035 46.3509 47.4893 46.3576 47.0111 46.5016C46.538 46.6468 46.1557 46.8602 45.864 47.1417L44.8668 45.4905C45.3553 45.1187 45.9614 44.8516 46.6853 44.6892C47.4155 44.5228 48.1957 44.5383 49.0259 44.7355C49.5137 44.8514 49.9731 45.0291 50.4041 45.2686C50.8363 45.5028 51.2058 45.7935 51.5125 46.1404C51.8193 46.4874 52.0335 46.8892 52.1553 47.3457C52.2771 47.8022 52.2714 48.3107 52.1382 48.8711C52.0161 49.3848 51.8047 49.8361 51.504 50.2251C51.2097 50.6102 50.856 50.8989 50.443 51.0913C50.8891 51.4056 51.199 51.7972 51.3726 52.266C51.5515 52.7361 51.5675 53.2799 51.4208 53.8974C51.2482 54.6238 50.9018 55.2048 50.3817 55.6404C49.8616 56.0759 49.2297 56.3588 48.4861 56.4891C47.749 56.6155 46.9627 56.5794 46.1273 56.3809ZM51.5441 57.4213L57.7409 47.053L60.4884 47.7059L61.3588 59.7535L59.4286 59.2948L58.6113 48.4768L59.0316 48.5767L53.4744 57.88L51.5441 57.4213ZM54.0903 55.4608L54.5064 53.7096L60.3906 55.1078L59.9745 56.859L54.0903 55.4608ZM62.766 60.0878L65.4292 48.8799L74.5123 51.0382L71.8491 62.2461L69.9733 61.8004L72.2186 52.3515L66.887 51.0846L64.6418 60.5335L62.766 60.0878ZM83.028 64.9024L81.1289 64.4511L83.006 56.5511L75.9296 63.2157L74.0305 62.7644L76.6937 51.5565L78.5928 52.0078L76.7156 59.9078L83.792 53.2432L85.6912 53.6945L83.028 64.9024ZM89.8883 66.7792C88.7675 66.5129 87.8655 66.0409 87.1824 65.3633C86.5004 64.6805 86.0483 63.8494 85.826 62.8702C85.6088 61.8922 85.6378 60.8246 85.9127 59.6675C86.1877 58.5104 86.6421 57.5439 87.2759 56.7681C87.915 55.9935 88.692 55.4573 89.607 55.1594C90.5232 54.8563 91.5417 54.8379 92.6625 55.1043C93.9545 55.4113 94.9541 55.9914 95.6614 56.8447C96.3698 57.6928 96.7678 58.7055 96.8553 59.883L94.8401 59.9551C94.796 59.1717 94.5606 58.5127 94.1339 57.9783C93.7085 57.4386 93.0781 57.0696 92.2427 56.8711C91.4903 56.6923 90.8223 56.7117 90.2389 56.9294C89.6606 57.1483 89.1716 57.5337 88.7719 58.0856C88.3785 58.6335 88.0819 59.3168 87.8819 60.1354C87.6871 60.9552 87.6415 61.7009 87.745 62.3723C87.855 63.0398 88.1216 63.602 88.5448 64.0589C88.968 64.5158 89.5558 64.8336 90.3081 65.0124C91.1436 65.2109 91.8726 65.1649 92.4953 64.8743C93.118 64.5837 93.6247 64.1011 94.0152 63.4264L95.7826 64.3973C95.1748 65.4096 94.3632 66.1376 93.3477 66.5816C92.3335 67.0203 91.1804 67.0862 89.8883 66.7792ZM95.6139 67.893L101.811 57.5247L104.558 58.1776L105.429 70.2251L103.498 69.7665L102.681 58.9485L103.101 59.0484L97.5442 68.3517L95.6139 67.893ZM98.1601 65.9325L98.5763 64.1813L104.46 65.5795L104.044 67.3307L98.1601 65.9325ZM108.602 70.9791L110.847 61.5302L107.22 60.6683L107.638 58.9093L116.768 61.0787L116.35 62.8377L112.723 61.9759L110.477 71.4248L108.602 70.9791ZM115.333 72.5786L117.996 61.3707L119.872 61.8164L118.942 65.7314L121.697 66.3861C121.801 66.4108 121.94 66.4492 122.114 66.5015C122.289 66.5486 122.446 66.6024 122.585 66.6629C123.205 66.9144 123.686 67.2561 124.027 67.688C124.374 68.1212 124.588 68.6161 124.67 69.1727C124.758 69.7254 124.729 70.3078 124.583 70.9201C124.437 71.5376 124.199 72.0759 123.871 72.5351C123.549 72.9903 123.135 73.3334 122.631 73.5644C122.132 73.7966 121.549 73.8856 120.882 73.8313C120.732 73.8175 120.567 73.7949 120.388 73.7633C120.215 73.733 120.073 73.7049 119.964 73.679L115.333 72.5786ZM117.627 71.2653L120.304 71.9015C120.413 71.9274 120.531 71.95 120.658 71.9692C120.791 71.9896 120.917 72.0004 121.037 72.0016C121.362 71.9965 121.636 71.9164 121.859 71.7611C122.087 71.6071 122.268 71.4142 122.399 71.1824C122.538 70.9466 122.635 70.7094 122.692 70.4707C122.749 70.232 122.768 69.9789 122.749 69.7113C122.736 69.445 122.661 69.1917 122.527 68.9513C122.397 68.7122 122.189 68.5174 121.901 68.3668C121.794 68.3086 121.677 68.2588 121.55 68.2176C121.428 68.1777 121.312 68.1447 121.203 68.1188L118.526 67.4826L117.627 71.2653ZM130.112 76.337C128.991 76.0707 128.089 75.5987 127.406 74.9211C126.724 74.2383 126.272 73.4072 126.05 72.428C125.833 71.45 125.862 70.3824 126.137 69.2253C126.411 68.0682 126.866 67.1017 127.5 66.3259C128.139 65.5513 128.916 65.0151 129.831 64.7172C130.747 64.4141 131.765 64.3957 132.886 64.6621C134.178 64.9691 135.178 65.5492 135.885 66.4025C136.594 67.2506 136.992 68.2633 137.079 69.4408L135.064 69.5129C135.02 68.7295 134.784 68.0705 134.358 67.5361C133.932 66.9964 133.302 66.6274 132.466 66.4289C131.714 66.2501 131.046 66.2695 130.463 66.4872C129.884 66.7061 129.395 67.0915 128.996 67.6434C128.602 68.1913 128.306 68.8746 128.106 69.6932C127.911 70.513 127.865 71.2587 127.969 71.9301C128.079 72.5976 128.345 73.1598 128.769 73.6167C129.192 74.0736 129.78 74.3914 130.532 74.5702C131.367 74.7687 132.096 74.7227 132.719 74.4321C133.342 74.1415 133.848 73.6589 134.239 72.9842L136.006 73.9551C135.399 74.9674 134.587 75.6954 133.572 76.1394C132.557 76.5781 131.404 76.644 130.112 76.337ZM145.015 79.6314L143.139 79.1857L144.069 75.2707L141.182 74.5846L140.397 74.324C139.479 73.9415 138.867 73.3685 138.56 72.6049C138.255 71.8362 138.211 70.9952 138.428 70.082C138.575 69.4645 138.809 68.9282 139.131 68.4729C139.459 68.0137 139.873 67.668 140.372 67.4358C140.877 67.2048 141.465 67.1171 142.137 67.1726C142.288 67.1812 142.45 67.2033 142.623 67.2388C142.797 67.2691 142.938 67.2972 143.047 67.3231L147.678 68.4235L145.015 79.6314ZM138.578 78.1019L136.453 77.597L140.065 73.1927L141.872 74.0662L138.578 78.1019ZM144.485 73.5195L145.384 69.7368L142.707 69.1006C142.603 69.0759 142.485 69.0534 142.353 69.0329C142.222 69.0073 142.098 68.9971 141.982 69.0023C141.652 69.0062 141.373 69.0851 141.144 69.2391C140.921 69.3944 140.74 69.5899 140.602 69.8257C140.47 70.0575 140.376 70.2927 140.319 70.5314C140.263 70.7701 140.241 71.0226 140.254 71.2889C140.273 71.5565 140.347 71.8098 140.477 72.0489C140.611 72.2892 140.825 72.4853 141.118 72.6371C141.22 72.6941 141.334 72.7433 141.461 72.7845C141.589 72.8257 141.704 72.8586 141.808 72.8833L144.485 73.5195Z" fill="black"/>
</svg>
