<svg width="257" height="21" viewBox="0 0 257 21" fill="none" xmlns="http://www.w3.org/2000/svg">
<path d="M22.4965 0.272424C24.4256 0.272424 25.9894 1.79898 25.9897 3.68148V8.86337H22.4965V3.68148H14.811V8.86337H22.4965V12.2733H14.811V21H11.1787V12.2733H3.49318V8.86337H11.1787V3.68148H3.49318V8.86337H0V3.68148C0.000379909 1.79901 1.56418 0.272465 3.49318 0.272424H22.4965Z" fill="#F01413"/>
<path d="M33.9544 17.4543H40.1025C40.1025 19.4124 38.4757 21 36.4693 21H33.9544C31.7165 21 29.9021 19.2293 29.9021 17.0453V0.272424H33.9544V17.4543Z" fill="#F01413"/>
<path d="M50.1629 0.272424C52.4008 0.272425 54.2151 2.04317 54.2152 4.22716V21H50.1629V3.81811H44.0148C44.0149 1.86007 45.6416 0.272471 47.648 0.272424H50.1629Z" fill="#F01413"/>
<path d="M95.1568 21H91.6628V3.81811H95.1568V21Z" fill="#F01413"/>
<path d="M110.387 17.5909H127.993V21H106.894V12.2733H110.387V17.5909Z" fill="#F01413"/>
<path d="M61.3416 20.8642H57.7084V12.2733H61.3416V20.8642Z" fill="#F01413"/>
<path d="M79.0875 20.8642H75.4543V12.2733H79.0875V20.8642Z" fill="#F01413"/>
<path d="M134.7 20.8642H131.067V15.8181C131.067 13.8601 132.694 12.2733 134.7 12.2733V20.8642Z" fill="#F01413"/>
<path d="M148.813 12.2733C150.819 12.2733 152.446 13.8601 152.446 15.8181V20.8642H148.813V12.2733Z" fill="#F01413"/>
<path d="M159.712 20.8642H156.079V12.2733H159.712V20.8642Z" fill="#F01413"/>
<path d="M177.458 20.8642H173.824V12.2733H177.458V20.8642Z" fill="#F01413"/>
<path d="M185.143 17.3185H191.291C191.291 19.2766 189.664 20.8642 187.658 20.8642H185.143C182.905 20.8642 181.091 19.0934 181.091 16.9095V0.136629H185.143V17.3185Z" fill="#F01413"/>
<path d="M201.352 0.136629C203.589 0.136629 205.404 1.90731 205.404 4.09136V20.8642H201.352V3.68148H195.203C195.204 1.72353 196.83 0.136629 198.837 0.136629H201.352Z" fill="#F01413"/>
<path d="M213.089 20.8642H209.595V12H213.089V20.8642Z" fill="#F01413"/>
<path d="M239.254 20.8642H235.621V12.2733H239.254V20.8642Z" fill="#F01413"/>
<path d="M257 20.8642H253.367V12.2733H257V20.8642Z" fill="#F01413"/>
<path d="M225.385 8.59095C228.395 8.59112 230.834 10.9724 230.834 13.9095V20.7959H227.202V14.5593C227.202 13.146 226.028 12.0002 224.58 12H213.089V8.59095H225.385Z" fill="#F01413"/>
<path d="M44.0148 17.4543H40.1025V3.81811H44.0148V17.4543Z" fill="#F01413"/>
<path d="M195.203 17.3185H191.291V3.68148H195.203V17.3185Z" fill="#F01413"/>
<path d="M61.3416 8.72758H75.4543V0.272424H79.0875V8.86337H75.4543V12.2733H61.3416V8.86337H57.7084V0.272424H61.3416V8.72758Z" fill="#F01413"/>
<path d="M124.64 12.2733H110.387V8.86337H124.64V12.2733Z" fill="#F01413"/>
<path d="M134.7 8.72758H148.813V0.272424H152.446V5.31852C152.446 7.27651 150.819 8.86337 148.813 8.86337V12.2733H134.7V8.86337C132.694 8.86337 131.067 7.27651 131.067 5.31852V0.272424H134.7V8.72758Z" fill="#F01413"/>
<path d="M159.712 8.72758H173.824V0.272424H177.458V8.86337H173.824V12.2733H159.712V8.86337H156.079V0.272424H159.712V8.72758Z" fill="#F01413"/>
<path d="M253.367 12.2733H239.254V8.72758H253.367V12.2733Z" fill="#F01413"/>
<path d="M127.993 3.68148H110.387V8.86337H106.894V0.272424H127.993V3.68148Z" fill="#F01413"/>
<path d="M253.228 0.136629C255.234 0.13684 256.86 1.72366 256.86 3.68148V8.79589H253.437V3.68148H239.114V8.79589H235.621V3.68148C235.621 1.72358 237.248 0.136709 239.254 0.136629H253.228Z" fill="#F01413"/>
<path d="M213.089 8.59095H209.595V0H213.089V8.59095Z" fill="#F01413"/>
<path d="M229.018 5.18189C229.018 7.06469 227.454 8.59095 225.525 8.59095V0H229.018V5.18189Z" fill="#F01413"/>
<path d="M91.6628 3.68148H82.8598V0.272424H91.6628V3.68148Z" fill="#F01413"/>
<path d="M104.099 3.68148H95.296V0.272424H104.099V3.68148Z" fill="#F01413"/>
</svg>
